<svg width="406" height="172" viewBox="558 952 406 172" fill="none" xmlns="http://www.w3.org/2000/svg">
  <title>Brai</title>
  <path d="M562.206 1116V960.51H622.65C641.922 960.51 656.668 963.941 666.888 970.803C677.108 977.519 682.218 988.177 682.218 1002.78C682.218 1009.2 680.904 1014.82 678.276 1019.64C675.648 1024.31 671.779 1028.03 666.669 1030.81C661.705 1033.58 655.646 1035.26 648.492 1035.85V1035.41C661.486 1036.28 671.414 1040.08 678.276 1046.8C685.284 1053.37 688.788 1062.13 688.788 1073.08C688.788 1087.53 683.678 1098.33 673.458 1105.49C663.384 1112.5 648.93 1116 630.096 1116H562.206ZM595.494 1088.84H628.563C636.593 1088.84 643.017 1087.24 647.835 1084.03C652.799 1080.67 655.281 1075.7 655.281 1069.13C655.281 1062.56 652.799 1057.6 647.835 1054.24C643.017 1050.74 636.593 1048.99 628.563 1048.99H595.494V1088.84ZM595.494 1024.9H621.774C629.95 1024.9 636.447 1023.29 641.265 1020.08C646.229 1016.87 648.711 1012.27 648.711 1006.28C648.711 999.857 646.302 995.185 641.484 992.265C636.812 989.199 630.242 987.666 621.774 987.666H595.494V1024.9ZM712.3 1116V998.616H743.398L744.493 1032.78L742.084 1032.12C743.982 1020.3 747.34 1011.76 752.158 1006.5C756.976 1001.24 763.619 998.616 772.087 998.616H782.818V1025.77H772.087C765.955 1025.77 760.918 1026.57 756.976 1028.18C753.034 1029.79 750.041 1032.34 747.997 1035.85C746.099 1039.35 745.15 1044.09 745.15 1050.08V1116H712.3Z" fill="#F4F4F5"/>
  <path d="M832.668 1118.63C820.55 1118.63 810.622 1115.85 802.884 1110.31C795.292 1104.61 791.496 1096.73 791.496 1086.65C791.496 1076.29 794.708 1068.33 801.132 1062.78C807.702 1057.09 817.338 1052.93 830.04 1050.3L867.927 1042.85C867.927 1035.26 866.175 1029.57 862.671 1025.77C859.313 1021.83 854.422 1019.86 847.998 1019.86C841.72 1019.86 836.829 1021.32 833.325 1024.24C829.821 1027.01 827.558 1031.17 826.536 1036.72L793.467 1035.19C795.657 1022.34 801.424 1012.63 810.768 1006.06C820.258 999.346 832.668 995.988 847.998 995.988C865.518 995.988 878.658 1000.15 887.418 1008.47C896.324 1016.79 900.777 1028.98 900.777 1045.04V1085.12C900.777 1088.48 901.288 1090.74 902.31 1091.91C903.478 1092.93 905.157 1093.44 907.347 1093.44H910.632V1116C909.61 1116.29 907.931 1116.58 905.595 1116.88C903.405 1117.17 901.215 1117.31 899.025 1117.31C894.353 1117.31 889.973 1116.51 885.885 1114.9C881.943 1113.3 878.731 1110.6 876.249 1106.8C873.767 1102.86 872.526 1097.31 872.526 1090.16L875.373 1092.35C873.913 1097.6 871.285 1102.2 867.489 1106.14C863.839 1110.09 859.021 1113.15 853.035 1115.34C847.195 1117.53 840.406 1118.63 832.668 1118.63ZM840.552 1096.07C845.954 1096.07 850.699 1095.05 854.787 1093C858.875 1090.81 862.087 1087.68 864.423 1083.59C866.759 1079.5 867.927 1074.68 867.927 1069.13V1063.44L841.209 1069.13C835.953 1070.16 831.938 1071.91 829.164 1074.39C826.536 1076.73 825.222 1079.79 825.222 1083.59C825.222 1087.53 826.536 1090.6 829.164 1092.79C831.792 1094.98 835.588 1096.07 840.552 1096.07ZM926.167 1116V998.616H959.017V1116H926.167ZM925.51 984.162V957.882H959.455V984.162H925.51Z" fill="#FF2323"/>
</svg>
